<svg id="svg" version="1.1" width="400" height="434.2857142857143" viewBox="0 0 400 434.2857142857143" xmlns="http://www.w3.org/2000/svg" xmlns:xlink="http://www.w3.org/1999/xlink" ><g id="svgg"><path id="path0" d="M146.545 133.400 C 146.418 133.730,145.961 134.000,145.529 134.000 C 145.096 134.000,144.473 134.270,144.143 134.600 C 143.775 134.967,142.795 135.200,141.614 135.200 C 140.269 135.200,139.616 135.381,139.455 135.800 C 139.115 136.686,132.319 136.662,131.429 135.771 C 130.857 135.200,130.800 135.361,130.800 137.543 C 130.800 139.143,130.600 140.143,130.200 140.543 C 129.280 141.462,129.467 143.185,130.600 144.235 C 131.150 144.745,131.600 145.536,131.600 145.993 C 131.600 146.451,131.870 146.929,132.200 147.055 C 132.530 147.182,132.800 147.722,132.800 148.255 C 132.800 148.789,133.070 149.329,133.400 149.455 C 133.730 149.582,134.008 150.071,134.017 150.543 C 134.026 151.014,134.566 151.842,135.217 152.381 C 135.869 152.922,136.400 153.756,136.400 154.238 C 136.400 154.720,136.670 155.218,137.000 155.345 C 137.330 155.471,137.600 155.919,137.600 156.338 C 137.600 156.758,137.870 157.326,138.200 157.600 C 138.530 157.874,138.800 158.425,138.800 158.825 C 138.800 159.225,138.980 159.664,139.200 159.800 C 139.420 159.936,139.600 160.402,139.600 160.836 C 139.600 161.270,139.870 161.729,140.200 161.855 C 140.629 162.020,140.800 162.690,140.800 164.200 C 140.800 165.710,140.971 166.380,141.400 166.545 C 141.730 166.671,142.000 167.211,142.000 167.745 C 142.000 168.278,142.270 168.818,142.600 168.945 C 143.075 169.127,143.200 169.963,143.200 172.945 C 143.200 175.927,143.325 176.763,143.800 176.945 C 144.130 177.071,144.400 177.611,144.400 178.145 C 144.400 178.678,144.670 179.218,145.000 179.345 C 145.330 179.471,145.600 179.902,145.600 180.301 C 145.600 180.701,146.590 182.005,147.800 183.200 C 149.587 184.965,150.000 185.621,150.000 186.699 C 150.000 187.509,150.234 188.115,150.600 188.255 C 151.020 188.417,151.200 189.072,151.200 190.446 C 151.200 192.309,151.240 192.382,152.003 191.905 C 152.921 191.332,154.800 193.049,154.800 194.462 C 154.800 194.868,154.980 195.200,155.200 195.200 C 155.420 195.200,155.600 196.100,155.600 197.200 C 155.600 199.023,156.104 199.888,156.491 198.728 C 156.742 197.974,158.000 198.690,158.000 199.587 C 158.000 200.512,158.825 200.641,160.008 199.902 C 160.856 199.373,162.800 201.016,162.800 202.262 C 162.800 202.558,163.070 202.800,163.400 202.800 C 163.730 202.800,164.000 202.530,164.000 202.200 C 164.000 201.826,164.378 201.600,165.005 201.600 C 165.558 201.600,166.353 201.386,166.771 201.125 C 167.634 200.586,169.580 202.038,169.593 203.230 C 169.597 203.577,170.050 204.283,170.600 204.800 C 171.400 205.552,171.600 206.127,171.600 207.682 C 171.600 209.040,171.781 209.694,172.200 209.855 C 172.587 210.004,172.800 210.623,172.800 211.600 C 172.800 212.577,173.013 213.196,173.400 213.345 C 173.730 213.471,174.000 213.941,174.000 214.387 C 174.000 215.313,174.823 215.440,176.018 214.700 C 177.146 214.001,177.586 214.819,177.594 217.630 C 177.599 219.488,177.767 220.018,178.600 220.800 C 179.279 221.438,179.600 222.168,179.600 223.073 C 179.600 224.287,179.669 224.364,180.366 223.929 C 181.188 223.415,185.600 227.092,185.600 228.291 C 185.600 228.682,185.794 228.724,186.310 228.448 C 186.765 228.205,187.278 228.212,187.736 228.468 C 188.402 228.841,192.264 228.782,193.585 228.379 C 193.919 228.277,194.347 228.586,194.580 229.100 C 195.028 230.085,197.362 230.369,198.778 229.612 C 199.646 229.147,201.600 230.602,201.600 231.713 C 201.600 232.515,203.555 232.685,204.293 231.947 C 204.923 231.317,206.000 231.817,206.000 232.738 C 206.000 233.158,206.270 233.726,206.600 234.000 C 207.039 234.364,207.200 235.331,207.200 237.606 C 207.200 240.000,207.338 240.767,207.800 240.945 C 208.177 241.089,208.400 241.701,208.400 242.587 C 208.400 244.024,211.438 244.834,212.200 243.600 C 213.017 242.278,214.000 243.237,214.000 245.357 C 214.000 246.906,214.169 247.579,214.600 247.745 C 214.971 247.887,215.200 248.495,215.200 249.338 C 215.200 250.088,215.470 250.926,215.800 251.200 C 216.217 251.546,216.400 252.465,216.400 254.206 C 216.400 256.067,216.555 256.774,217.000 256.945 C 217.330 257.071,217.600 257.519,217.600 257.938 C 217.600 258.358,217.870 258.926,218.200 259.200 C 218.530 259.474,218.800 260.025,218.800 260.425 C 218.800 260.825,218.980 261.264,219.200 261.400 C 219.420 261.536,219.600 262.807,219.600 264.224 C 219.600 266.533,219.683 266.800,220.400 266.800 C 220.840 266.800,221.200 266.574,221.200 266.298 C 221.200 266.021,221.740 265.556,222.400 265.264 C 224.498 264.335,227.886 268.201,226.200 269.600 C 225.870 269.874,225.600 270.442,225.600 270.862 C 225.600 271.281,225.330 271.729,225.000 271.855 C 224.559 272.024,224.400 272.720,224.400 274.471 C 224.400 276.059,224.601 277.058,225.000 277.457 C 225.330 277.787,225.600 278.597,225.600 279.257 C 225.600 279.917,225.870 280.727,226.200 281.057 C 226.530 281.387,226.800 282.162,226.800 282.780 C 226.800 283.397,226.530 284.126,226.200 284.400 C 225.550 284.939,225.362 287.600,225.973 287.600 C 226.178 287.600,226.452 287.934,226.582 288.343 C 226.753 288.882,227.090 289.034,227.809 288.896 C 228.734 288.719,228.800 288.817,228.800 290.353 L 228.800 292.000 231.100 291.987 C 232.462 291.980,233.710 291.740,234.159 291.400 C 235.060 290.718,235.600 290.952,235.600 292.024 C 235.600 292.894,236.019 293.021,236.685 292.355 C 237.284 291.756,238.000 292.255,238.000 293.273 C 238.000 293.958,238.101 294.014,238.595 293.604 C 239.417 292.922,240.400 293.392,240.400 294.467 C 240.400 295.162,240.507 295.253,240.880 294.880 C 241.650 294.110,242.365 294.322,242.636 295.400 C 242.917 296.521,244.246 296.753,245.588 295.914 C 246.481 295.357,248.400 296.777,248.400 297.995 C 248.400 298.355,248.940 299.168,249.600 299.800 C 250.260 300.432,250.800 301.186,250.800 301.475 C 250.800 302.144,252.273 302.166,252.514 301.500 C 252.659 301.100,252.865 301.100,253.542 301.500 C 254.685 302.175,255.600 302.130,255.600 301.400 C 255.600 301.070,255.780 300.800,256.000 300.800 C 256.220 300.800,256.400 300.350,256.400 299.800 C 256.400 299.178,256.627 298.800,257.000 298.800 C 257.467 298.800,257.600 298.267,257.600 296.400 C 257.600 294.533,257.733 294.000,258.200 294.000 C 258.573 294.000,258.800 293.622,258.800 293.000 C 258.800 292.378,259.027 292.000,259.400 292.000 C 259.867 292.000,260.000 291.467,260.000 289.600 C 260.000 287.733,260.133 287.200,260.600 287.200 C 260.930 287.200,261.200 286.930,261.200 286.600 C 261.200 286.264,260.843 286.000,260.387 286.000 C 259.425 286.000,258.902 284.938,259.547 284.293 C 259.796 284.044,260.000 283.066,260.000 282.120 C 260.000 280.858,260.160 280.400,260.600 280.400 C 260.930 280.400,261.200 280.130,261.200 279.800 C 261.200 279.470,260.930 279.200,260.600 279.200 C 259.417 279.200,256.736 276.067,257.191 275.217 C 257.737 274.197,257.715 269.075,257.163 268.523 C 256.847 268.207,256.847 267.860,257.163 267.269 C 257.403 266.820,257.600 265.721,257.600 264.826 C 257.600 263.647,257.765 263.200,258.200 263.200 C 258.530 263.200,258.800 262.930,258.800 262.600 C 258.800 262.270,259.070 262.000,259.400 262.000 C 259.833 262.000,260.000 261.556,260.000 260.400 C 260.000 259.244,260.167 258.800,260.600 258.800 C 260.930 258.800,261.200 258.530,261.200 258.200 C 261.200 257.870,261.470 257.600,261.800 257.600 C 262.130 257.600,262.400 257.330,262.400 257.000 C 262.400 256.670,262.670 256.400,263.000 256.400 C 264.056 256.400,263.778 254.081,262.704 253.928 C 261.681 253.782,261.252 252.467,262.061 251.954 C 262.451 251.707,262.347 251.611,261.687 251.606 C 260.642 251.599,260.075 250.565,260.747 249.893 C 260.996 249.644,261.200 248.666,261.200 247.720 C 261.200 246.458,261.360 246.000,261.800 246.000 C 262.200 246.000,262.400 245.600,262.400 244.800 C 262.400 243.860,262.224 243.600,261.587 243.600 C 260.625 243.600,260.102 242.538,260.747 241.893 C 261.618 241.022,261.290 239.309,260.200 239.036 C 259.194 238.783,258.856 237.860,259.600 237.400 C 259.820 237.264,260.000 235.543,260.000 233.576 C 260.000 230.664,260.111 230.000,260.600 230.000 C 261.061 230.000,261.200 229.489,261.200 227.800 C 261.200 226.111,261.339 225.600,261.800 225.600 C 262.200 225.600,262.400 225.200,262.400 224.400 C 262.400 223.600,262.600 223.200,263.000 223.200 C 263.400 223.200,263.600 222.800,263.600 222.000 C 263.600 221.340,263.780 220.800,264.000 220.800 C 264.220 220.800,264.400 220.080,264.400 219.200 C 264.400 218.044,264.567 217.600,265.000 217.600 C 265.461 217.600,265.600 217.089,265.600 215.400 C 265.600 213.711,265.739 213.200,266.200 213.200 C 266.667 213.200,266.800 212.667,266.800 210.800 C 266.800 208.933,266.933 208.400,267.400 208.400 C 267.844 208.400,268.000 207.933,268.000 206.600 C 268.000 205.057,267.884 204.800,267.187 204.800 C 266.225 204.800,265.702 203.738,266.347 203.093 C 266.596 202.844,266.800 202.136,266.800 201.520 C 266.800 200.791,267.010 200.400,267.400 200.400 C 267.730 200.400,268.000 200.130,268.000 199.800 C 268.000 199.356,268.467 199.200,269.800 199.200 C 271.789 199.200,272.224 198.259,270.990 196.628 C 270.474 195.946,270.483 195.771,271.065 195.128 C 271.687 194.441,271.662 194.400,270.615 194.400 C 269.651 194.400,269.531 194.271,269.696 193.409 C 269.834 192.690,269.682 192.353,269.143 192.182 C 268.379 191.940,268.083 190.400,268.800 190.400 C 269.026 190.400,269.200 189.267,269.200 187.800 C 269.200 185.293,269.164 185.200,268.200 185.200 C 267.195 185.200,266.806 184.291,267.600 183.800 C 268.490 183.250,268.096 171.600,267.187 171.600 C 266.225 171.600,265.702 170.538,266.347 169.893 C 267.139 169.101,266.882 167.427,265.900 166.980 C 265.405 166.755,265.070 166.307,265.155 165.985 C 265.711 163.882,265.685 163.600,264.936 163.600 C 263.539 163.600,262.172 161.236,263.200 160.600 C 263.922 160.154,263.618 159.258,262.700 159.128 C 261.787 158.998,261.108 157.200,261.972 157.200 C 262.207 157.200,262.400 156.840,262.400 156.400 C 262.400 155.762,262.133 155.600,261.081 155.600 C 259.410 155.600,256.315 152.725,257.119 151.921 C 257.384 151.656,257.600 150.936,257.600 150.320 C 257.600 149.591,257.810 149.200,258.200 149.200 C 258.530 149.200,258.800 148.930,258.800 148.600 C 258.800 148.270,259.070 148.000,259.400 148.000 C 259.800 148.000,260.000 147.600,260.000 146.800 C 260.000 146.076,259.792 145.600,259.475 145.600 C 258.502 145.600,256.587 143.253,257.123 142.717 C 257.977 141.863,257.737 138.400,256.824 138.400 C 255.803 138.400,255.410 137.711,256.015 136.982 C 256.998 135.797,249.941 136.186,248.820 137.379 C 248.314 137.917,247.518 138.412,247.050 138.479 C 246.531 138.553,246.152 138.939,246.076 139.471 C 246.008 139.950,245.693 140.557,245.376 140.820 C 245.059 141.083,244.800 141.566,244.800 141.893 C 244.800 142.703,243.151 144.385,242.349 144.393 C 241.991 144.397,241.474 144.670,241.200 145.000 C 240.858 145.412,239.947 145.600,238.297 145.600 C 236.245 145.600,235.756 145.747,234.965 146.600 C 234.455 147.150,233.689 147.600,233.262 147.600 C 232.835 147.600,232.382 147.870,232.255 148.200 C 232.113 148.571,231.505 148.800,230.662 148.800 C 229.912 148.800,229.074 149.070,228.800 149.400 C 228.526 149.730,227.716 150.000,227.000 150.000 C 226.284 150.000,225.474 150.270,225.200 150.600 C 224.169 151.842,218.019 151.420,216.464 150.000 C 215.742 149.340,214.821 148.800,214.418 148.800 C 214.015 148.800,213.582 148.530,213.455 148.200 C 213.314 147.832,212.707 147.600,211.882 147.600 C 210.967 147.600,210.240 147.282,209.600 146.600 C 209.083 146.050,208.354 145.600,207.979 145.600 C 206.845 145.600,206.266 144.591,206.986 143.871 C 208.128 142.729,207.811 139.600,206.553 139.600 C 205.653 139.600,205.533 139.461,205.698 138.600 C 205.857 137.769,205.734 137.600,204.975 137.600 C 204.473 137.600,203.522 137.060,202.862 136.400 C 201.495 135.034,198.822 134.721,197.743 135.800 C 197.349 136.194,196.354 136.400,194.841 136.400 C 192.903 136.400,192.391 136.558,191.600 137.400 C 190.871 138.176,190.262 138.400,188.884 138.400 C 187.233 138.400,186.948 138.569,184.831 140.800 C 183.397 142.312,182.230 143.200,181.677 143.200 C 180.920 143.200,180.800 143.420,180.800 144.800 L 180.800 146.400 179.081 146.400 C 177.603 146.400,177.144 146.176,175.800 144.800 C 174.039 142.997,169.534 142.409,168.143 143.800 C 166.629 145.313,162.427 143.329,163.502 141.608 C 163.776 141.170,164.000 140.358,164.000 139.805 C 164.000 139.178,164.226 138.800,164.600 138.800 C 165.044 138.800,165.200 138.333,165.200 137.000 C 165.200 135.482,165.078 135.200,164.420 135.200 C 163.991 135.200,163.482 134.919,163.290 134.575 C 162.973 134.008,162.892 134.008,162.421 134.575 C 161.410 135.793,157.149 135.424,155.981 134.017 C 154.814 132.609,147.043 132.101,146.545 133.400 " stroke="none" fill="#fcfcfc" fill-rule="evenodd"></path><path id="path1" d="M144.800 131.400 C 144.800 131.800,144.400 132.000,143.600 132.000 C 142.800 132.000,142.400 132.200,142.400 132.600 C 142.400 133.067,141.867 133.200,140.000 133.200 C 138.133 133.200,137.600 133.333,137.600 133.800 C 137.600 134.276,137.022 134.400,134.800 134.400 C 132.578 134.400,132.000 134.276,132.000 133.800 C 132.000 133.367,131.556 133.200,130.400 133.200 C 129.244 133.200,128.800 133.367,128.800 133.800 C 128.800 134.130,128.530 134.400,128.200 134.400 C 127.827 134.400,127.600 134.778,127.600 135.400 C 127.600 136.022,127.827 136.400,128.200 136.400 C 128.600 136.400,128.800 136.800,128.800 137.600 C 128.800 138.400,128.600 138.800,128.200 138.800 C 127.724 138.800,127.600 139.378,127.600 141.600 C 127.600 143.822,127.724 144.400,128.200 144.400 C 128.530 144.400,128.800 144.670,128.800 145.000 C 128.800 145.330,128.980 145.600,129.200 145.600 C 129.420 145.600,129.600 146.140,129.600 146.800 C 129.600 147.600,129.800 148.000,130.200 148.000 C 130.573 148.000,130.800 148.378,130.800 149.000 C 130.800 149.622,131.027 150.000,131.400 150.000 C 131.800 150.000,132.000 150.400,132.000 151.200 C 132.000 152.000,132.200 152.400,132.600 152.400 C 132.930 152.400,133.200 152.670,133.200 153.000 C 133.200 153.330,133.470 153.600,133.800 153.600 C 134.200 153.600,134.400 154.000,134.400 154.800 C 134.400 155.600,134.600 156.000,135.000 156.000 C 135.373 156.000,135.600 156.378,135.600 157.000 C 135.600 157.622,135.827 158.000,136.200 158.000 C 136.600 158.000,136.800 158.400,136.800 159.200 C 136.800 159.860,136.980 160.400,137.200 160.400 C 137.420 160.400,137.600 160.940,137.600 161.600 C 137.600 162.400,137.800 162.800,138.200 162.800 C 138.661 162.800,138.800 163.311,138.800 165.000 C 138.800 166.689,138.939 167.200,139.400 167.200 C 139.800 167.200,140.000 167.600,140.000 168.400 C 140.000 169.200,140.200 169.600,140.600 169.600 C 141.093 169.600,141.200 170.311,141.200 173.600 C 141.200 176.889,141.307 177.600,141.800 177.600 C 142.200 177.600,142.400 178.000,142.400 178.800 C 142.400 179.600,142.600 180.000,143.000 180.000 C 143.373 180.000,143.600 180.378,143.600 181.000 C 143.600 181.622,143.827 182.000,144.200 182.000 C 144.530 182.000,144.800 182.270,144.800 182.600 C 144.800 182.930,144.980 183.200,145.200 183.200 C 145.420 183.200,145.600 183.470,145.600 183.800 C 145.600 184.130,145.870 184.400,146.200 184.400 C 146.530 184.400,146.800 184.670,146.800 185.000 C 146.800 185.330,147.070 185.600,147.400 185.600 C 147.844 185.600,148.000 186.067,148.000 187.400 C 148.000 188.733,148.156 189.200,148.600 189.200 C 149.033 189.200,149.200 189.644,149.200 190.800 C 149.200 192.133,149.333 192.400,150.000 192.400 C 151.027 192.400,151.207 188.931,150.200 188.545 C 149.832 188.403,149.600 187.797,149.600 186.975 C 149.600 185.886,149.187 185.219,147.400 183.417 C 146.190 182.198,145.200 180.859,145.200 180.443 C 145.200 180.026,144.930 179.582,144.600 179.455 C 144.270 179.329,144.000 178.881,144.000 178.462 C 144.000 178.042,143.730 177.474,143.400 177.200 C 142.946 176.823,142.800 175.802,142.800 172.994 C 142.800 170.067,142.674 169.237,142.200 169.055 C 141.870 168.929,141.600 168.481,141.600 168.062 C 141.600 167.642,141.330 167.074,141.000 166.800 C 140.631 166.494,140.400 165.616,140.400 164.522 C 140.400 163.474,140.154 162.496,139.800 162.143 C 139.470 161.813,139.200 161.196,139.200 160.771 C 139.200 160.347,139.020 160.000,138.800 160.000 C 138.580 160.000,138.400 159.544,138.400 158.987 C 138.400 158.431,138.130 157.871,137.800 157.745 C 137.470 157.618,137.200 157.103,137.200 156.600 C 137.200 156.097,136.930 155.582,136.600 155.455 C 136.270 155.329,136.000 154.893,136.000 154.487 C 136.000 154.082,135.460 153.232,134.800 152.600 C 134.140 151.968,133.600 151.118,133.600 150.713 C 133.600 150.307,133.330 149.871,133.000 149.745 C 132.670 149.618,132.400 149.084,132.400 148.557 C 132.400 148.031,132.223 147.600,132.008 147.600 C 131.792 147.600,131.494 147.105,131.345 146.500 C 131.197 145.895,130.654 145.004,130.138 144.519 C 129.047 143.494,128.857 141.183,129.800 140.400 C 130.219 140.053,130.400 139.131,130.400 137.351 C 130.400 134.850,131.128 133.793,131.745 135.400 C 131.926 135.871,132.741 136.000,135.545 136.000 C 138.349 136.000,139.164 135.871,139.345 135.400 C 139.506 134.979,140.162 134.800,141.538 134.800 C 142.796 134.800,143.681 134.584,144.000 134.200 C 144.274 133.870,144.842 133.600,145.262 133.600 C 145.681 133.600,146.129 133.330,146.255 133.000 C 146.753 131.703,154.780 132.198,156.167 133.611 C 157.594 135.066,161.630 135.391,162.347 134.108 C 162.714 133.453,162.774 133.453,163.499 134.108 C 164.514 135.027,165.200 134.983,165.200 134.000 C 165.200 133.556,164.933 133.200,164.600 133.200 C 164.270 133.200,164.000 132.930,164.000 132.600 C 164.000 132.270,163.730 132.000,163.400 132.000 C 163.070 132.000,162.800 131.730,162.800 131.400 C 162.800 131.027,162.422 130.800,161.800 130.800 C 160.956 130.800,160.800 130.987,160.800 132.000 C 160.800 133.156,160.733 133.200,159.000 133.200 C 157.667 133.200,157.200 133.044,157.200 132.600 C 157.200 132.270,156.930 132.000,156.600 132.000 C 156.270 132.000,156.000 131.730,156.000 131.400 C 156.000 130.895,155.111 130.800,150.400 130.800 C 145.689 130.800,144.800 130.895,144.800 131.400 M196.000 133.800 C 196.000 134.276,195.422 134.400,193.200 134.400 C 190.978 134.400,190.400 134.524,190.400 135.000 C 190.400 135.330,190.130 135.600,189.800 135.600 C 189.470 135.600,189.200 135.780,189.200 136.000 C 189.200 136.220,188.210 136.400,187.000 136.400 C 185.311 136.400,184.800 136.539,184.800 137.000 C 184.800 137.330,184.530 137.600,184.200 137.600 C 183.870 137.600,183.600 137.870,183.600 138.200 C 183.600 138.530,183.330 138.800,183.000 138.800 C 182.670 138.800,182.400 139.070,182.400 139.400 C 182.400 139.730,182.130 140.000,181.800 140.000 C 181.470 140.000,181.200 140.270,181.200 140.600 C 181.200 141.000,180.800 141.200,180.000 141.200 C 178.867 141.200,178.800 141.289,178.800 142.800 C 178.800 143.956,178.633 144.400,178.200 144.400 C 177.870 144.400,177.600 144.220,177.600 144.000 C 177.600 143.780,177.330 143.600,177.000 143.600 C 176.670 143.600,176.400 143.330,176.400 143.000 C 176.400 142.670,176.220 142.400,176.000 142.400 C 175.780 142.400,175.600 142.130,175.600 141.800 C 175.600 141.301,174.822 141.200,171.000 141.200 C 167.178 141.200,166.400 141.301,166.400 141.800 C 166.400 142.130,166.130 142.400,165.800 142.400 C 165.470 142.400,165.200 142.130,165.200 141.800 C 165.200 141.470,164.941 141.200,164.624 141.200 C 163.588 141.200,163.498 142.040,164.428 143.030 C 165.461 144.129,167.491 144.349,167.855 143.400 C 168.034 142.935,168.812 142.800,171.305 142.800 L 174.524 142.800 176.046 144.400 C 178.220 146.686,180.291 146.733,180.476 144.500 C 180.572 143.336,180.786 142.973,181.431 142.881 C 181.888 142.816,183.323 141.691,184.619 140.381 C 186.789 138.188,187.114 138.000,188.742 138.000 C 190.112 138.000,190.716 137.776,191.435 137.000 C 192.223 136.150,192.718 136.000,194.732 136.000 C 196.351 136.000,197.260 135.810,197.600 135.400 C 198.468 134.354,201.860 134.607,202.965 135.800 C 204.029 136.949,206.400 137.225,206.400 136.200 C 206.400 135.800,206.000 135.600,205.200 135.600 C 204.400 135.600,204.000 135.400,204.000 135.000 C 204.000 134.670,203.730 134.400,203.400 134.400 C 203.070 134.400,202.800 134.130,202.800 133.800 C 202.800 133.314,202.156 133.200,199.400 133.200 C 196.644 133.200,196.000 133.314,196.000 133.800 M247.600 135.000 C 247.600 135.330,247.330 135.600,247.000 135.600 C 246.670 135.600,246.400 135.780,246.400 136.000 C 246.400 136.220,245.860 136.400,245.200 136.400 C 244.133 136.400,244.000 136.533,244.000 137.600 C 244.000 138.400,243.800 138.800,243.400 138.800 C 243.000 138.800,242.800 139.200,242.800 140.000 C 242.800 140.800,242.600 141.200,242.200 141.200 C 241.870 141.200,241.600 141.470,241.600 141.800 C 241.600 142.173,241.222 142.400,240.600 142.400 C 239.978 142.400,239.600 142.627,239.600 143.000 C 239.600 143.477,239.019 143.600,236.771 143.600 C 234.007 143.600,232.800 144.078,232.800 145.171 C 232.800 145.407,232.260 145.600,231.600 145.600 C 230.800 145.600,230.400 145.800,230.400 146.200 C 230.400 146.644,229.933 146.800,228.600 146.800 C 227.267 146.800,226.800 146.956,226.800 147.400 C 226.800 147.833,226.356 148.000,225.200 148.000 C 224.044 148.000,223.600 148.167,223.600 148.600 C 223.600 149.080,223.000 149.200,220.600 149.200 C 218.200 149.200,217.600 149.080,217.600 148.600 C 217.600 148.270,217.330 148.000,217.000 148.000 C 216.670 148.000,216.400 147.730,216.400 147.400 C 216.400 147.027,216.022 146.800,215.400 146.800 C 214.778 146.800,214.400 146.573,214.400 146.200 C 214.400 145.756,213.933 145.600,212.600 145.600 C 211.267 145.600,210.800 145.444,210.800 145.000 C 210.800 144.670,210.530 144.400,210.200 144.400 C 209.870 144.400,209.600 144.220,209.600 144.000 C 209.600 143.780,209.060 143.600,208.400 143.600 C 207.600 143.600,207.200 143.800,207.200 144.200 C 207.200 144.530,207.523 144.800,207.919 144.800 C 208.314 144.800,209.079 145.332,209.619 145.983 C 210.369 146.888,210.942 147.170,212.057 147.183 C 212.971 147.194,213.600 147.424,213.745 147.800 C 213.871 148.130,214.386 148.408,214.887 148.417 C 215.396 148.426,216.234 148.958,216.781 149.617 C 217.943 151.018,224.562 151.485,225.055 150.200 C 225.204 149.813,225.823 149.600,226.800 149.600 C 227.777 149.600,228.396 149.387,228.545 149.000 C 228.687 148.629,229.295 148.400,230.138 148.400 C 230.888 148.400,231.726 148.130,232.000 147.800 C 232.274 147.470,232.802 147.200,233.174 147.200 C 233.546 147.200,234.368 146.660,235.000 146.000 C 236.040 144.915,236.391 144.800,238.675 144.800 C 240.092 144.800,241.200 144.624,241.200 144.400 C 241.200 144.180,241.560 144.000,242.000 144.000 C 243.022 144.000,244.400 142.633,244.400 141.620 C 244.400 141.191,244.653 140.696,244.962 140.520 C 245.270 140.344,245.585 139.750,245.662 139.200 C 245.758 138.503,246.088 138.159,246.751 138.065 C 247.274 137.992,248.105 137.497,248.597 136.965 C 249.410 136.088,249.808 136.000,252.946 136.000 C 256.133 136.000,256.400 135.938,256.400 135.200 C 256.400 134.448,256.133 134.400,252.000 134.400 C 248.356 134.400,247.600 134.503,247.600 135.000 M256.400 137.200 C 256.400 137.644,256.667 138.000,257.000 138.000 C 257.333 138.000,257.600 137.644,257.600 137.200 C 257.600 136.756,257.333 136.400,257.000 136.400 C 256.667 136.400,256.400 136.756,256.400 137.200 M206.267 137.867 C 205.716 138.417,206.029 139.200,206.800 139.200 C 207.333 139.200,207.600 138.933,207.600 138.400 C 207.600 137.629,206.817 137.316,206.267 137.867 M257.381 142.831 C 257.057 143.355,258.527 144.800,259.383 144.800 C 259.722 144.800,260.000 144.530,260.000 144.200 C 260.000 143.870,259.730 143.600,259.400 143.600 C 259.070 143.600,258.800 143.330,258.800 143.000 C 258.800 142.311,257.778 142.189,257.381 142.831 M257.414 151.977 C 257.286 152.185,257.821 152.995,258.604 153.777 C 260.272 155.445,262.400 155.794,262.400 154.400 C 262.400 153.778,262.133 153.600,261.200 153.600 C 260.400 153.600,260.000 153.400,260.000 153.000 C 260.000 152.670,259.730 152.400,259.400 152.400 C 259.070 152.400,258.800 152.220,258.800 152.000 C 258.800 151.493,257.724 151.475,257.414 151.977 M262.000 158.000 C 262.000 158.533,262.267 158.800,262.800 158.800 C 263.333 158.800,263.600 158.533,263.600 158.000 C 263.600 157.467,263.333 157.200,262.800 157.200 C 262.267 157.200,262.000 157.467,262.000 158.000 M263.339 161.015 C 263.072 161.711,264.246 163.200,265.062 163.200 C 265.358 163.200,265.600 162.840,265.600 162.400 C 265.600 161.956,265.333 161.600,265.000 161.600 C 264.670 161.600,264.400 161.330,264.400 161.000 C 264.400 160.215,263.642 160.226,263.339 161.015 M265.400 165.600 C 265.065 166.142,265.517 166.800,266.224 166.800 C 266.541 166.800,266.800 166.440,266.800 166.000 C 266.800 165.172,265.835 164.896,265.400 165.600 M266.667 169.867 C 266.116 170.417,266.429 171.200,267.200 171.200 C 267.733 171.200,268.000 170.933,268.000 170.400 C 268.000 169.629,267.217 169.316,266.667 169.867 M267.867 183.467 C 267.316 184.017,267.629 184.800,268.400 184.800 C 268.933 184.800,269.200 184.533,269.200 184.000 C 269.200 183.229,268.417 182.916,267.867 183.467 M268.875 191.095 C 269.076 192.138,270.400 192.254,270.400 191.229 C 270.400 190.657,270.143 190.400,269.571 190.400 C 268.998 190.400,268.783 190.615,268.875 191.095 M151.867 192.267 C 151.379 192.754,151.591 193.600,152.200 193.600 C 152.600 193.600,152.800 194.000,152.800 194.800 C 152.800 195.460,152.980 196.000,153.200 196.000 C 153.420 196.000,153.600 196.720,153.600 197.600 C 153.600 198.933,153.733 199.200,154.400 199.200 C 155.279 199.200,155.626 195.910,154.800 195.400 C 154.580 195.264,154.397 194.848,154.393 194.476 C 154.382 193.400,152.436 191.698,151.867 192.267 M270.267 192.667 C 269.716 193.217,270.029 194.000,270.800 194.000 C 271.333 194.000,271.600 193.733,271.600 193.200 C 271.600 192.429,270.817 192.116,270.267 192.667 M271.273 195.869 C 271.458 197.426,272.400 197.564,272.400 196.033 C 272.400 195.180,272.207 194.800,271.773 194.800 C 271.329 194.800,271.184 195.111,271.273 195.869 M156.500 199.087 C 155.693 199.377,155.927 200.400,156.800 200.400 C 157.240 200.400,157.600 200.141,157.600 199.824 C 157.600 199.128,157.177 198.845,156.500 199.087 M159.867 200.267 C 159.379 200.754,159.591 201.600,160.200 201.600 C 160.530 201.600,160.800 201.870,160.800 202.200 C 160.800 202.533,161.156 202.800,161.600 202.800 C 162.669 202.800,162.600 202.003,161.437 200.900 C 160.405 199.922,160.267 199.866,159.867 200.267 M166.667 201.467 C 166.179 201.954,166.391 202.800,167.000 202.800 C 167.400 202.800,167.600 203.200,167.600 204.000 C 167.600 204.660,167.793 205.200,168.029 205.200 C 169.036 205.200,169.600 206.411,169.600 208.571 C 169.600 210.286,169.738 210.800,170.200 210.800 C 170.633 210.800,170.800 211.244,170.800 212.400 C 170.800 213.556,170.967 214.000,171.400 214.000 C 171.730 214.000,172.000 214.270,172.000 214.600 C 172.000 214.933,172.356 215.200,172.800 215.200 C 173.742 215.200,173.854 214.309,173.000 213.600 C 172.670 213.326,172.400 212.571,172.400 211.922 C 172.400 211.274,172.130 210.473,171.800 210.143 C 171.442 209.785,171.200 208.807,171.200 207.717 C 171.200 206.284,170.985 205.693,170.200 204.965 C 169.650 204.455,169.200 203.743,169.200 203.383 C 169.200 202.345,167.258 200.876,166.667 201.467 M266.600 203.200 C 266.265 203.742,266.717 204.400,267.424 204.400 C 267.741 204.400,268.000 204.040,268.000 203.600 C 268.000 202.772,267.035 202.496,266.600 203.200 M175.875 215.058 C 175.278 215.655,175.569 220.800,176.200 220.800 C 176.530 220.800,176.800 221.070,176.800 221.400 C 176.800 221.730,176.980 222.000,177.200 222.000 C 177.420 222.000,177.600 222.540,177.600 223.200 C 177.600 224.133,177.778 224.400,178.400 224.400 C 179.608 224.400,179.490 222.160,178.220 220.984 C 177.416 220.239,177.219 219.625,177.120 217.569 C 177.010 215.264,176.565 214.368,175.875 215.058 M180.267 224.267 C 179.779 224.754,179.991 225.600,180.600 225.600 C 180.930 225.600,181.200 225.870,181.200 226.200 C 181.200 226.530,181.470 226.800,181.800 226.800 C 182.130 226.800,182.400 227.070,182.400 227.400 C 182.400 227.730,182.670 228.000,183.000 228.000 C 183.330 228.000,183.600 228.180,183.600 228.400 C 183.600 228.620,183.960 228.800,184.400 228.800 C 185.632 228.800,185.374 228.212,183.181 226.019 C 181.164 224.003,180.769 223.765,180.267 224.267 M186.300 228.703 C 185.087 228.973,185.484 230.000,186.800 230.000 C 187.559 230.000,188.000 229.795,188.000 229.443 C 188.000 228.792,187.291 228.483,186.300 228.703 M193.300 228.687 C 192.493 228.977,192.727 230.000,193.600 230.000 C 194.040 230.000,194.400 229.741,194.400 229.424 C 194.400 228.728,193.977 228.445,193.300 228.687 M198.900 229.895 C 198.195 230.137,198.276 231.200,199.000 231.200 C 199.330 231.200,199.600 231.470,199.600 231.800 C 199.600 232.133,199.956 232.400,200.400 232.400 C 200.840 232.400,201.197 232.175,201.193 231.900 C 201.183 231.176,199.488 229.694,198.900 229.895 M204.267 232.267 C 203.726 232.807,203.988 234.800,204.600 234.800 C 205.086 234.800,205.200 235.444,205.200 238.200 C 205.200 240.956,205.314 241.600,205.800 241.600 C 206.200 241.600,206.400 242.000,206.400 242.800 C 206.400 243.733,206.578 244.000,207.200 244.000 C 208.188 244.000,208.332 241.974,207.400 241.200 C 206.961 240.836,206.800 239.869,206.800 237.594 C 206.800 235.200,206.662 234.433,206.200 234.255 C 205.870 234.129,205.600 233.569,205.600 233.013 C 205.600 232.060,204.878 231.656,204.267 232.267 M259.800 237.600 C 259.465 238.142,259.917 238.800,260.624 238.800 C 260.941 238.800,261.200 238.440,261.200 238.000 C 261.200 237.172,260.235 236.896,259.800 237.600 M261.067 241.867 C 260.516 242.417,260.829 243.200,261.600 243.200 C 262.133 243.200,262.400 242.933,262.400 242.400 C 262.400 241.629,261.617 241.316,261.067 241.867 M212.000 246.000 C 212.000 247.867,212.133 248.400,212.600 248.400 C 213.044 248.400,213.200 248.867,213.200 250.200 C 213.200 251.533,213.356 252.000,213.800 252.000 C 214.276 252.000,214.400 252.578,214.400 254.800 C 214.400 257.022,214.524 257.600,215.000 257.600 C 215.400 257.600,215.600 258.000,215.600 258.800 C 215.600 259.600,215.800 260.000,216.200 260.000 C 216.573 260.000,216.800 260.378,216.800 261.000 C 216.800 261.550,216.980 262.000,217.200 262.000 C 217.420 262.000,217.600 262.540,217.600 263.200 C 217.600 263.860,217.420 264.400,217.200 264.400 C 216.980 264.400,216.800 265.210,216.800 266.200 C 216.800 268.273,218.448 268.964,218.948 267.100 C 219.342 265.631,219.233 261.600,218.800 261.600 C 218.580 261.600,218.400 261.169,218.400 260.643 C 218.400 260.116,218.130 259.582,217.800 259.455 C 217.470 259.329,217.200 258.881,217.200 258.462 C 217.200 258.042,216.930 257.474,216.600 257.200 C 216.183 256.854,216.000 255.935,216.000 254.194 C 216.000 252.333,215.845 251.626,215.400 251.455 C 215.008 251.305,214.800 250.682,214.800 249.655 C 214.800 248.629,214.592 248.006,214.200 247.855 C 213.777 247.693,213.600 247.032,213.600 245.613 C 213.600 243.867,213.494 243.600,212.800 243.600 C 212.089 243.600,212.000 243.867,212.000 246.000 M261.067 249.867 C 260.516 250.417,260.829 251.200,261.600 251.200 C 262.133 251.200,262.400 250.933,262.400 250.400 C 262.400 249.629,261.617 249.316,261.067 249.867 M262.000 252.800 C 262.000 253.333,262.267 253.600,262.800 253.600 C 263.333 253.600,263.600 253.333,263.600 252.800 C 263.600 252.267,263.333 252.000,262.800 252.000 C 262.267 252.000,262.000 252.267,262.000 252.800 M222.400 266.000 C 222.400 266.444,222.667 266.800,223.000 266.800 C 223.433 266.800,223.600 267.244,223.600 268.400 C 223.600 269.556,223.433 270.000,223.000 270.000 C 222.507 270.000,222.400 270.711,222.400 274.000 C 222.400 277.289,222.507 278.000,223.000 278.000 C 223.444 278.000,223.600 278.467,223.600 279.800 C 223.600 281.133,223.756 281.600,224.200 281.600 C 224.530 281.600,224.800 281.870,224.800 282.200 C 224.800 282.530,224.530 282.800,224.200 282.800 C 223.724 282.800,223.600 283.378,223.600 285.600 C 223.600 287.822,223.724 288.400,224.200 288.400 C 224.530 288.400,224.800 288.670,224.800 289.000 C 224.800 289.333,225.156 289.600,225.600 289.600 C 226.534 289.600,226.687 288.485,225.800 288.145 C 225.396 287.990,225.200 287.355,225.200 286.200 C 225.200 285.045,225.396 284.410,225.800 284.255 C 226.143 284.124,226.400 283.527,226.400 282.862 C 226.400 282.222,226.130 281.474,225.800 281.200 C 225.470 280.926,225.200 280.088,225.200 279.338 C 225.200 278.495,224.971 277.887,224.600 277.745 C 224.147 277.571,224.000 276.838,224.000 274.745 C 224.000 272.652,224.147 271.919,224.600 271.745 C 224.930 271.618,225.200 271.103,225.200 270.600 C 225.200 270.097,225.470 269.582,225.800 269.455 C 226.795 269.073,226.481 267.971,224.972 266.547 C 223.356 265.024,222.400 264.820,222.400 266.000 M257.352 267.381 C 257.067 268.123,257.483 268.800,258.224 268.800 C 258.572 268.800,258.800 268.404,258.800 267.800 C 258.800 266.701,257.732 266.392,257.352 267.381 M257.391 275.214 C 257.108 275.672,260.041 278.800,260.753 278.800 C 260.999 278.800,261.200 278.440,261.200 278.000 C 261.200 277.556,260.933 277.200,260.600 277.200 C 260.270 277.200,260.000 276.930,260.000 276.600 C 260.000 276.270,259.730 276.000,259.400 276.000 C 259.070 276.000,258.800 275.730,258.800 275.400 C 258.800 274.719,257.780 274.585,257.391 275.214 M259.800 284.400 C 259.465 284.942,259.917 285.600,260.624 285.600 C 260.941 285.600,261.200 285.240,261.200 284.800 C 261.200 283.972,260.235 283.696,259.800 284.400 M226.954 289.777 C 226.591 290.722,226.961 291.782,227.705 291.925 C 228.260 292.032,228.400 291.772,228.400 290.629 C 228.400 289.151,227.416 288.571,226.954 289.777 M234.300 291.632 C 233.360 292.179,233.413 292.800,234.400 292.800 C 234.933 292.800,235.200 292.533,235.200 292.000 C 235.200 291.082,235.226 291.093,234.300 291.632 M236.500 292.687 C 235.693 292.977,235.927 294.000,236.800 294.000 C 237.240 294.000,237.600 293.741,237.600 293.424 C 237.600 292.728,237.177 292.445,236.500 292.687 M238.900 293.887 C 238.093 294.177,238.327 295.200,239.200 295.200 C 239.640 295.200,240.000 294.941,240.000 294.624 C 240.000 293.928,239.577 293.645,238.900 293.887 M241.075 295.058 C 240.509 295.625,240.829 296.400,241.629 296.400 C 242.189 296.400,242.417 296.183,242.329 295.733 C 242.187 294.997,241.504 294.630,241.075 295.058 M245.467 296.267 C 244.979 296.754,245.191 297.600,245.800 297.600 C 246.200 297.600,246.400 298.000,246.400 298.800 C 246.400 299.600,246.600 300.000,247.000 300.000 C 247.330 300.000,247.600 300.180,247.600 300.400 C 247.600 300.620,247.870 300.800,248.200 300.800 C 248.530 300.800,248.800 301.070,248.800 301.400 C 248.800 301.733,249.156 302.000,249.600 302.000 C 250.752 302.000,250.584 301.115,249.217 299.981 C 248.566 299.442,248.026 298.685,248.017 298.300 C 247.987 297.061,246.142 295.591,245.467 296.267 M252.500 301.865 C 251.493 302.271,251.980 303.200,253.200 303.200 C 254.493 303.200,254.882 302.271,253.767 301.843 C 253.419 301.709,253.104 301.614,253.067 301.632 C 253.030 301.649,252.775 301.754,252.500 301.865 " stroke="none" fill="#646464" fill-rule="evenodd"></path><path id="path2" d="" stroke="none" fill="#d4100b0" fill-rule="evenodd"></path><path id="path3" d="" stroke="none" fill="#d4100b0" fill-rule="evenodd"></path><path id="path4" d="" stroke="none" fill="#d4100b0" fill-rule="evenodd"></path></g></svg>