<svg id="svg" version="1.1" width="400" height="434.2857142857143" viewBox="0 0 400 434.2857142857143" xmlns="http://www.w3.org/2000/svg" xmlns:xlink="http://www.w3.org/1999/xlink" ><g id="svgg"><path id="path0" d="M218.542 139.007 C 218.385 139.415,217.727 139.600,216.432 139.600 C 214.863 139.600,214.359 139.800,213.400 140.800 C 212.170 142.084,210.523 142.387,210.145 141.400 C 209.571 139.905,207.200 140.675,207.200 142.357 C 207.200 143.408,206.994 143.993,206.567 144.157 C 205.384 144.611,202.859 144.402,202.257 143.800 C 201.927 143.470,201.451 143.200,201.200 143.200 C 200.949 143.200,200.473 143.470,200.143 143.800 C 199.813 144.130,199.003 144.400,198.343 144.400 C 197.683 144.400,196.873 144.670,196.543 145.000 C 196.213 145.330,195.596 145.600,195.171 145.600 C 194.747 145.600,194.400 145.780,194.400 146.000 C 194.400 146.220,193.792 146.400,193.049 146.400 C 192.306 146.400,191.474 146.670,191.200 147.000 C 190.382 147.986,187.889 147.759,186.800 146.600 C 185.807 145.543,179.600 145.026,179.600 146.000 C 179.600 146.220,179.148 146.400,178.595 146.400 C 177.682 146.400,176.963 146.132,175.200 145.137 C 174.870 144.951,174.164 144.611,173.631 144.383 C 173.097 144.154,172.261 143.535,171.771 143.007 C 170.657 141.804,169.600 142.650,169.600 144.744 C 169.600 145.514,169.361 146.117,169.000 146.255 C 168.548 146.429,168.400 147.156,168.400 149.200 C 168.400 151.199,168.248 151.973,167.822 152.136 C 167.443 152.282,167.201 153.084,167.122 154.463 C 167.017 156.266,166.871 156.599,166.099 156.784 C 164.612 157.141,162.800 159.129,162.800 160.405 C 162.800 161.031,162.530 161.813,162.200 162.143 C 161.870 162.473,161.600 163.283,161.600 163.943 C 161.600 164.603,161.330 165.413,161.000 165.743 C 160.670 166.073,160.400 166.856,160.400 167.484 C 160.400 168.348,159.817 169.202,158.000 171.000 C 156.680 172.306,155.600 173.685,155.600 174.064 C 155.600 174.443,155.420 174.864,155.200 175.000 C 154.980 175.136,154.800 176.579,154.800 178.207 C 154.800 181.350,153.727 183.200,151.904 183.200 C 151.457 183.200,151.200 183.505,151.200 184.036 C 151.200 185.806,147.408 187.248,146.125 185.965 C 145.812 185.652,145.615 185.652,145.422 185.965 C 145.000 186.648,141.728 186.511,141.455 185.800 C 141.329 185.470,140.851 185.200,140.393 185.200 C 139.936 185.200,139.145 184.750,138.635 184.200 C 137.550 183.029,135.960 182.900,134.805 183.889 C 133.518 184.991,133.810 186.288,135.800 188.306 C 137.718 190.252,138.300 192.556,137.000 193.055 C 136.670 193.182,136.400 193.707,136.400 194.223 C 136.400 194.738,136.085 195.337,135.700 195.553 C 135.033 195.927,135.033 195.959,135.700 196.216 C 136.320 196.455,136.400 197.118,136.400 202.000 C 136.400 206.533,136.507 207.555,137.000 207.745 C 138.623 208.367,137.621 216.400,135.920 216.400 C 135.491 216.400,135.200 216.694,135.200 217.125 C 135.200 217.524,134.669 218.359,134.021 218.980 C 133.372 219.602,132.787 220.489,132.721 220.951 C 132.653 221.422,132.248 221.853,131.800 221.931 C 129.196 222.386,124.799 228.654,126.600 229.345 C 126.930 229.471,127.200 230.011,127.200 230.545 C 127.200 231.078,127.470 231.618,127.800 231.745 C 128.294 231.934,128.400 232.969,128.400 237.600 C 128.400 242.231,128.294 243.266,127.800 243.455 C 126.576 243.925,127.115 245.867,129.000 247.779 C 130.570 249.371,130.800 249.824,130.800 251.321 C 130.800 252.797,131.025 253.257,132.400 254.600 C 133.280 255.459,134.000 256.491,134.000 256.894 C 134.000 257.296,134.270 257.729,134.600 257.855 C 134.970 257.997,135.200 258.605,135.200 259.443 C 135.200 260.887,136.129 261.311,137.121 260.319 C 137.714 259.726,140.800 262.546,140.800 263.681 C 140.800 264.492,141.982 264.658,142.693 263.947 C 143.979 262.661,144.399 263.856,144.432 268.887 C 144.449 271.589,144.554 273.575,144.665 273.300 C 145.029 272.398,146.369 272.738,146.636 273.800 C 146.898 274.845,148.862 275.271,149.400 274.400 C 150.589 272.477,151.200 274.039,151.200 279.000 C 151.200 284.293,151.491 284.966,153.087 283.370 C 154.001 282.456,156.767 285.208,156.787 287.051 C 156.794 287.739,157.070 288.526,157.400 288.800 C 157.798 289.130,158.000 290.026,158.000 291.462 C 158.000 293.016,157.831 293.690,157.400 293.855 C 156.396 294.241,156.576 297.600,157.600 297.600 C 158.044 297.600,158.400 297.333,158.400 297.000 C 158.400 296.670,158.670 296.400,159.000 296.400 C 159.330 296.400,159.600 296.130,159.600 295.800 C 159.600 295.373,160.034 295.200,161.105 295.200 C 162.282 295.200,162.696 295.004,163.005 294.300 C 163.641 292.851,164.582 293.179,164.724 294.900 C 164.849 296.411,166.400 297.243,166.400 295.800 C 166.400 295.470,166.670 295.200,167.000 295.200 C 167.330 295.200,167.600 294.930,167.600 294.600 C 167.600 294.124,168.178 294.000,170.400 294.000 C 172.622 294.000,173.200 293.876,173.200 293.400 C 173.200 293.023,173.581 292.800,174.226 292.800 C 174.791 292.800,175.569 292.631,175.956 292.424 C 176.752 291.997,178.800 293.576,178.800 294.616 C 178.800 295.334,181.999 295.441,182.693 294.747 C 183.338 294.102,184.400 294.625,184.400 295.587 C 184.400 296.043,184.664 296.400,185.000 296.400 C 185.330 296.400,185.600 296.130,185.600 295.800 C 185.600 295.470,185.870 295.200,186.200 295.200 C 186.530 295.200,186.800 294.930,186.800 294.600 C 186.800 294.270,187.070 294.000,187.400 294.000 C 187.773 294.000,188.000 293.622,188.000 293.000 C 188.000 292.378,188.227 292.000,188.600 292.000 C 188.930 292.000,189.200 291.730,189.200 291.400 C 189.200 291.070,189.470 290.800,189.800 290.800 C 190.130 290.800,190.400 290.530,190.400 290.200 C 190.400 289.870,190.670 289.600,191.000 289.600 C 191.330 289.600,191.600 289.330,191.600 289.000 C 191.600 288.567,192.044 288.400,193.200 288.400 C 194.356 288.400,194.800 288.233,194.800 287.800 C 194.800 287.470,195.070 287.200,195.400 287.200 C 195.730 287.200,196.000 286.930,196.000 286.600 C 196.000 286.270,196.270 286.000,196.600 286.000 C 196.930 286.000,197.200 285.730,197.200 285.400 C 197.200 285.070,197.470 284.800,197.800 284.800 C 198.133 284.800,198.400 284.444,198.400 284.000 C 198.400 283.560,198.760 282.840,199.200 282.400 C 199.640 281.960,200.360 281.600,200.800 281.600 C 201.422 281.600,201.600 281.333,201.600 280.400 C 201.600 279.600,201.800 279.200,202.200 279.200 C 202.661 279.200,202.800 278.689,202.800 277.000 C 202.800 275.311,202.939 274.800,203.400 274.800 C 203.730 274.800,204.000 274.530,204.000 274.200 C 204.000 273.870,204.270 273.600,204.600 273.600 C 204.930 273.600,205.200 273.330,205.200 273.000 C 205.200 272.670,205.470 272.400,205.800 272.400 C 206.130 272.400,206.400 272.130,206.400 271.800 C 206.400 271.470,206.670 271.200,207.000 271.200 C 207.330 271.200,207.600 270.930,207.600 270.600 C 207.600 270.270,207.780 270.000,208.000 270.000 C 208.220 270.000,208.400 269.730,208.400 269.400 C 208.400 269.070,208.670 268.800,209.000 268.800 C 209.330 268.800,209.600 268.620,209.600 268.400 C 209.600 268.180,209.870 268.000,210.200 268.000 C 210.600 268.000,210.800 267.600,210.800 266.800 C 210.800 266.000,211.000 265.600,211.400 265.600 C 211.730 265.600,212.000 265.330,212.000 265.000 C 212.000 264.670,212.270 264.400,212.600 264.400 C 212.930 264.400,213.200 264.130,213.200 263.800 C 213.200 263.470,213.470 263.200,213.800 263.200 C 214.130 263.200,214.400 262.930,214.400 262.600 C 214.400 262.227,214.778 262.000,215.400 262.000 C 216.345 262.000,216.400 261.880,216.400 259.800 C 216.400 258.111,216.539 257.600,217.000 257.600 C 217.400 257.600,217.600 257.200,217.600 256.400 C 217.600 255.600,217.800 255.200,218.200 255.200 C 218.530 255.200,218.800 254.930,218.800 254.600 C 218.800 254.270,219.070 254.000,219.400 254.000 C 219.730 254.000,220.000 253.730,220.000 253.400 C 220.000 253.070,220.270 252.800,220.600 252.800 C 221.061 252.800,221.200 252.289,221.200 250.600 C 221.200 248.911,221.339 248.400,221.800 248.400 C 222.200 248.400,222.400 248.000,222.400 247.200 C 222.400 246.400,222.600 246.000,223.000 246.000 C 223.330 246.000,223.600 245.730,223.600 245.400 C 223.600 245.070,223.780 244.800,224.000 244.800 C 224.220 244.800,224.400 243.810,224.400 242.600 C 224.400 240.911,224.539 240.400,225.000 240.400 C 225.461 240.400,225.600 239.889,225.600 238.200 C 225.600 236.511,225.739 236.000,226.200 236.000 C 226.644 236.000,226.800 235.533,226.800 234.200 C 226.800 232.467,226.844 232.400,228.000 232.400 C 228.800 232.400,229.200 232.200,229.200 231.800 C 229.200 231.470,229.470 231.200,229.800 231.200 C 230.200 231.200,230.400 230.800,230.400 230.000 C 230.400 228.812,230.422 228.800,232.600 228.800 C 234.850 228.800,235.373 228.333,234.310 227.270 C 233.923 226.883,233.923 226.615,234.310 225.995 C 234.580 225.564,234.800 224.758,234.800 224.205 C 234.800 223.578,235.026 223.200,235.400 223.200 C 235.730 223.200,236.000 222.930,236.000 222.600 C 236.000 222.121,236.591 222.000,238.920 222.000 C 240.531 222.000,242.040 221.800,242.285 221.555 C 242.884 220.956,243.600 221.455,243.600 222.473 C 243.600 223.161,243.700 223.215,244.200 222.800 C 244.678 222.404,245.043 222.403,246.000 222.800 C 246.952 223.194,247.324 223.195,247.795 222.804 C 248.592 222.143,249.600 222.581,249.600 223.587 C 249.600 224.556,255.008 224.832,255.930 223.910 C 256.317 223.523,256.585 223.523,257.205 223.910 C 258.197 224.530,259.087 224.538,259.291 223.928 C 259.550 223.151,260.800 223.904,260.800 224.836 C 260.800 225.554,260.900 225.615,261.395 225.204 C 262.192 224.543,263.200 224.980,263.200 225.987 C 263.200 226.533,263.463 226.800,264.000 226.800 C 264.440 226.800,264.800 226.620,264.800 226.400 C 264.800 226.180,265.141 226.000,265.557 226.000 C 266.344 226.000,266.969 227.002,266.578 227.636 C 266.450 227.843,267.742 228.000,269.576 228.000 C 272.533 228.000,272.800 227.934,272.800 227.200 C 272.800 226.667,272.533 226.400,272.000 226.400 C 270.882 226.400,269.481 224.898,269.726 223.963 C 269.835 223.543,269.790 223.200,269.625 223.200 C 268.569 223.200,267.026 221.171,267.502 220.408 C 268.545 218.738,268.152 217.200,266.681 217.200 C 264.790 217.200,262.026 214.431,262.973 213.484 C 263.939 212.518,263.757 211.600,262.600 211.600 C 261.569 211.600,261.145 210.328,262.000 209.800 C 262.725 209.352,262.478 207.201,261.700 207.193 C 260.447 207.181,258.971 205.259,259.529 204.366 C 259.958 203.677,259.889 203.600,258.846 203.600 C 258.184 203.600,257.587 203.857,257.455 204.200 C 257.015 205.348,254.210 204.965,253.061 203.600 C 252.284 202.676,251.720 202.400,250.613 202.400 C 249.704 202.400,249.090 202.179,248.945 201.800 C 248.818 201.470,248.374 201.200,247.957 201.200 C 247.541 201.200,246.840 200.840,246.400 200.400 C 245.556 199.556,245.325 198.400,246.000 198.400 C 246.220 198.400,246.400 198.040,246.400 197.600 C 246.400 197.063,246.133 196.800,245.587 196.800 C 244.580 196.800,244.143 195.792,244.804 194.995 C 245.225 194.488,245.094 194.400,243.919 194.400 C 242.239 194.400,240.334 192.706,241.125 191.915 C 241.873 191.167,241.701 190.000,240.843 190.000 C 239.947 190.000,239.528 189.157,240.031 188.364 C 240.576 187.503,240.467 186.400,239.838 186.400 C 238.589 186.400,235.015 182.389,235.529 181.565 C 235.941 180.906,235.894 180.800,235.191 180.800 C 234.181 180.800,233.742 179.793,234.404 178.995 C 234.814 178.501,234.758 178.400,234.073 178.400 C 233.055 178.400,232.556 177.684,233.155 177.085 C 234.014 176.226,233.725 170.400,232.824 170.400 C 231.803 170.400,231.410 169.711,232.015 168.982 C 232.401 168.517,232.378 168.400,231.898 168.400 C 230.833 168.400,230.289 167.368,230.986 166.671 C 232.045 165.613,231.791 163.600,230.600 163.600 C 229.505 163.600,229.219 162.541,230.080 161.680 C 230.453 161.307,230.320 161.200,229.480 161.200 C 228.334 161.200,227.890 159.872,228.900 159.465 C 229.175 159.354,228.989 159.249,228.487 159.232 C 227.390 159.194,226.921 158.218,227.604 157.395 C 228.015 156.900,227.954 156.800,227.236 156.800 C 226.188 156.800,225.730 155.807,226.404 154.995 C 226.811 154.505,226.766 154.399,226.149 154.393 C 224.933 154.382,223.398 152.525,224.003 151.796 C 224.404 151.313,224.384 151.200,223.898 151.200 C 222.811 151.200,222.292 150.166,223.015 149.442 C 223.605 148.853,223.573 148.800,222.629 148.800 C 221.506 148.800,221.207 147.753,222.080 146.880 C 222.453 146.507,222.364 146.400,221.680 146.400 C 220.309 146.400,218.969 144.862,219.541 143.946 C 220.250 142.811,220.136 138.938,219.385 138.650 C 219.035 138.515,218.672 138.669,218.542 139.007 " stroke="none" fill="#fcfcfc" fill-rule="evenodd"></path><path id="path1" d="M218.800 136.000 C 218.800 136.220,218.350 136.400,217.800 136.400 C 217.178 136.400,216.800 136.627,216.800 137.000 C 216.800 137.467,216.267 137.600,214.400 137.600 C 212.533 137.600,212.000 137.733,212.000 138.200 C 212.000 138.686,211.356 138.800,208.600 138.800 L 205.200 138.800 205.200 140.600 C 205.200 142.333,205.156 142.400,204.000 142.400 C 203.200 142.400,202.800 142.200,202.800 141.800 C 202.800 141.470,202.530 141.200,202.200 141.200 C 201.870 141.200,201.600 140.930,201.600 140.600 C 201.600 140.227,201.222 140.000,200.600 140.000 C 199.978 140.000,199.600 140.227,199.600 140.600 C 199.600 140.930,199.330 141.200,199.000 141.200 C 198.670 141.200,198.400 141.470,198.400 141.800 C 198.400 142.244,197.933 142.400,196.600 142.400 C 195.267 142.400,194.800 142.556,194.800 143.000 C 194.800 143.368,194.426 143.600,193.833 143.600 C 193.302 143.600,192.776 143.825,192.665 144.100 C 192.504 144.500,192.457 144.500,192.432 144.100 C 192.394 143.511,190.400 143.413,190.400 144.000 C 190.400 144.220,190.130 144.400,189.800 144.400 C 189.470 144.400,189.200 144.670,189.200 145.000 C 189.200 145.330,188.930 145.600,188.600 145.600 C 188.270 145.600,188.000 145.330,188.000 145.000 C 188.000 144.670,187.730 144.400,187.400 144.400 C 187.070 144.400,186.800 144.220,186.800 144.000 C 186.800 143.752,184.667 143.600,181.200 143.600 C 176.489 143.600,175.600 143.505,175.600 143.000 C 175.600 142.600,175.200 142.400,174.400 142.400 C 173.600 142.400,173.200 142.200,173.200 141.800 C 173.200 141.470,172.930 141.200,172.600 141.200 C 172.270 141.200,172.000 140.930,172.000 140.600 C 172.000 140.167,171.556 140.000,170.400 140.000 C 169.244 140.000,168.800 140.167,168.800 140.600 C 168.800 140.930,168.530 141.200,168.200 141.200 C 167.767 141.200,167.600 141.644,167.600 142.800 C 167.600 143.956,167.433 144.400,167.000 144.400 C 166.520 144.400,166.400 145.000,166.400 147.400 C 166.400 149.800,166.280 150.400,165.800 150.400 C 165.339 150.400,165.200 150.911,165.200 152.600 C 165.200 154.778,165.188 154.800,164.000 154.800 C 163.200 154.800,162.800 155.000,162.800 155.400 C 162.800 155.730,162.530 156.000,162.200 156.000 C 161.870 156.000,161.600 156.270,161.600 156.600 C 161.600 156.930,161.420 157.200,161.200 157.200 C 160.980 157.200,160.800 157.920,160.800 158.800 C 160.800 159.956,160.633 160.400,160.200 160.400 C 159.756 160.400,159.600 160.867,159.600 162.200 C 159.600 163.533,159.444 164.000,159.000 164.000 C 158.567 164.000,158.400 164.444,158.400 165.600 C 158.400 166.756,158.233 167.200,157.800 167.200 C 157.470 167.200,157.200 167.470,157.200 167.800 C 157.200 168.130,156.930 168.400,156.600 168.400 C 156.270 168.400,156.000 168.670,156.000 169.000 C 156.000 169.330,155.730 169.600,155.400 169.600 C 155.070 169.600,154.800 169.870,154.800 170.200 C 154.800 170.530,154.530 170.800,154.200 170.800 C 153.800 170.800,153.600 171.200,153.600 172.000 C 153.600 172.660,153.420 173.200,153.200 173.200 C 152.965 173.200,152.800 174.600,152.800 176.600 C 152.800 179.356,152.686 180.000,152.200 180.000 C 151.870 180.000,151.600 180.270,151.600 180.600 C 151.600 181.000,151.200 181.200,150.400 181.200 C 149.387 181.200,149.200 181.356,149.200 182.200 C 149.200 182.822,148.973 183.200,148.600 183.200 C 148.270 183.200,148.000 183.470,148.000 183.800 C 148.000 184.130,147.730 184.400,147.400 184.400 C 147.070 184.400,146.800 184.130,146.800 183.800 C 146.800 183.367,146.356 183.200,145.200 183.200 C 144.044 183.200,143.600 183.367,143.600 183.800 C 143.600 184.130,143.330 184.400,143.000 184.400 C 142.670 184.400,142.400 184.130,142.400 183.800 C 142.400 183.400,142.000 183.200,141.200 183.200 C 140.540 183.200,140.000 183.020,140.000 182.800 C 140.000 182.580,139.730 182.400,139.400 182.400 C 139.070 182.400,138.800 182.130,138.800 181.800 C 138.800 181.324,138.222 181.200,136.000 181.200 C 133.778 181.200,133.200 181.324,133.200 181.800 C 133.200 182.130,132.930 182.400,132.600 182.400 C 132.227 182.400,132.000 182.778,132.000 183.400 C 132.000 184.022,131.773 184.400,131.400 184.400 C 131.000 184.400,130.800 184.800,130.800 185.600 C 130.800 186.400,131.000 186.800,131.400 186.800 C 131.730 186.800,132.000 187.070,132.000 187.400 C 132.000 187.730,132.270 188.000,132.600 188.000 C 132.930 188.000,133.200 188.270,133.200 188.600 C 133.200 188.930,133.470 189.200,133.800 189.200 C 134.130 189.200,134.400 189.380,134.400 189.600 C 134.400 189.820,134.670 190.000,135.000 190.000 C 135.330 190.000,135.600 190.270,135.600 190.600 C 135.600 190.930,135.330 191.200,135.000 191.200 C 134.600 191.200,134.400 191.600,134.400 192.400 C 134.400 193.200,134.200 193.600,133.800 193.600 C 133.356 193.600,133.200 194.067,133.200 195.400 C 133.200 196.733,133.356 197.200,133.800 197.200 C 134.310 197.200,134.400 198.222,134.400 204.000 C 134.400 209.778,134.490 210.800,135.000 210.800 C 135.444 210.800,135.600 211.267,135.600 212.600 C 135.600 214.333,135.556 214.400,134.400 214.400 C 133.387 214.400,133.200 214.556,133.200 215.400 C 133.200 216.022,132.973 216.400,132.600 216.400 C 132.270 216.400,132.000 216.670,132.000 217.000 C 132.000 217.330,131.730 217.600,131.400 217.600 C 131.000 217.600,130.800 218.000,130.800 218.800 C 130.800 219.813,130.644 220.000,129.800 220.000 C 129.178 220.000,128.800 220.227,128.800 220.600 C 128.800 220.930,128.530 221.200,128.200 221.200 C 127.870 221.200,127.600 221.470,127.600 221.800 C 127.600 222.130,127.330 222.400,127.000 222.400 C 126.670 222.400,126.400 222.580,126.400 222.800 C 126.400 223.020,126.130 223.200,125.800 223.200 C 125.470 223.200,125.200 223.470,125.200 223.800 C 125.200 224.130,124.930 224.400,124.600 224.400 C 124.124 224.400,124.000 224.978,124.000 227.200 C 124.000 229.422,124.124 230.000,124.600 230.000 C 125.000 230.000,125.200 230.400,125.200 231.200 C 125.200 232.000,125.400 232.400,125.800 232.400 C 126.299 232.400,126.400 233.178,126.400 237.000 C 126.400 240.822,126.299 241.600,125.800 241.600 C 125.324 241.600,125.200 242.178,125.200 244.400 C 125.200 246.622,125.324 247.200,125.800 247.200 C 126.130 247.200,126.400 247.470,126.400 247.800 C 126.400 248.130,126.670 248.400,127.000 248.400 C 127.330 248.400,127.600 248.670,127.600 249.000 C 127.600 249.330,127.870 249.600,128.200 249.600 C 128.661 249.600,128.800 250.111,128.800 251.800 C 128.800 253.010,128.980 254.000,129.200 254.000 C 129.420 254.000,129.600 254.270,129.600 254.600 C 129.600 254.930,129.870 255.200,130.200 255.200 C 130.530 255.200,130.800 255.470,130.800 255.800 C 130.800 256.130,131.070 256.400,131.400 256.400 C 131.800 256.400,132.000 256.800,132.000 257.600 C 132.000 258.400,132.200 258.800,132.600 258.800 C 132.973 258.800,133.200 259.178,133.200 259.800 C 133.200 260.533,133.413 260.800,134.000 260.800 C 134.991 260.800,135.163 258.514,134.200 258.145 C 133.870 258.018,133.600 257.573,133.600 257.157 C 133.600 256.740,132.880 255.700,132.000 254.846 C 130.610 253.497,130.400 253.062,130.400 251.530 C 130.400 249.968,130.194 249.564,128.600 248.000 C 126.668 246.103,126.192 244.202,127.400 243.200 C 128.276 242.473,128.276 232.727,127.400 232.000 C 127.070 231.726,126.800 231.158,126.800 230.738 C 126.800 230.319,126.530 229.871,126.200 229.745 C 124.085 228.933,128.962 221.600,131.616 221.600 C 132.167 221.600,132.400 221.327,132.400 220.681 C 132.400 220.151,132.900 219.347,133.583 218.781 C 134.240 218.236,134.774 217.396,134.783 216.890 C 134.796 216.205,135.096 215.921,136.000 215.740 L 137.200 215.500 137.200 211.999 C 137.200 209.375,137.050 208.373,136.600 208.000 C 136.122 207.603,136.000 206.422,136.000 202.171 C 136.000 197.534,135.910 196.789,135.308 196.453 C 134.653 196.086,134.653 196.026,135.308 195.301 C 135.689 194.881,136.000 194.231,136.000 193.856 C 136.000 193.481,136.270 193.071,136.600 192.945 C 137.874 192.456,137.303 190.362,135.400 188.538 C 134.023 187.219,133.600 186.521,133.600 185.571 C 133.600 182.990,137.134 181.824,138.965 183.800 C 139.475 184.350,140.164 184.800,140.497 184.800 C 140.830 184.800,141.326 185.070,141.600 185.400 C 142.319 186.266,145.039 186.194,145.386 185.300 C 145.644 184.633,145.682 184.633,146.173 185.300 C 147.281 186.804,150.493 185.788,150.859 183.818 C 150.939 183.387,151.363 182.937,151.802 182.818 C 153.843 182.261,154.400 181.209,154.400 177.911 C 154.400 176.104,154.568 174.800,154.800 174.800 C 155.020 174.800,155.200 174.430,155.200 173.978 C 155.200 173.501,156.209 172.165,157.600 170.800 C 159.452 168.982,160.000 168.177,160.000 167.271 C 160.000 166.626,160.270 165.874,160.600 165.600 C 160.930 165.326,161.200 164.516,161.200 163.800 C 161.200 163.084,161.470 162.274,161.800 162.000 C 162.130 161.726,162.400 160.975,162.400 160.331 C 162.400 159.015,164.465 156.593,165.800 156.343 C 166.451 156.221,166.623 155.822,166.726 154.198 C 166.802 152.990,167.078 152.076,167.426 151.882 C 167.833 151.654,168.000 150.804,168.000 148.968 C 168.000 147.032,168.152 146.317,168.600 146.145 C 168.970 146.003,169.200 145.395,169.200 144.557 C 169.200 143.712,169.517 142.883,170.040 142.360 L 170.880 141.520 172.159 142.760 C 172.862 143.442,173.734 144.000,174.095 144.000 C 174.457 144.000,174.864 144.180,175.000 144.400 C 175.136 144.620,175.602 144.800,176.036 144.800 C 176.470 144.800,176.929 145.070,177.055 145.400 C 177.182 145.730,177.694 146.000,178.194 146.000 C 178.693 146.000,179.326 145.730,179.600 145.400 C 180.613 144.179,185.660 144.586,186.819 145.983 C 187.933 147.327,190.517 147.713,190.945 146.600 C 191.087 146.229,191.695 146.000,192.538 146.000 C 193.288 146.000,194.126 145.730,194.400 145.400 C 194.674 145.070,195.225 144.800,195.625 144.800 C 196.025 144.800,196.464 144.620,196.600 144.400 C 196.736 144.180,197.472 144.000,198.236 144.000 C 199.102 144.000,199.712 143.774,199.855 143.400 C 200.161 142.603,202.245 142.620,202.553 143.422 C 203.148 144.971,206.577 143.984,206.800 142.200 C 207.026 140.391,209.263 139.629,210.383 140.980 C 211.151 141.905,212.084 141.706,213.181 140.383 C 214.012 139.381,214.449 139.200,216.032 139.200 C 217.195 139.200,218.088 138.976,218.393 138.608 C 218.750 138.179,219.084 138.124,219.616 138.408 C 220.884 139.087,221.200 138.846,221.200 137.200 C 221.200 135.689,221.133 135.600,220.000 135.600 C 219.340 135.600,218.800 135.780,218.800 136.000 M219.600 144.111 C 219.600 144.771,221.034 146.000,221.805 146.000 C 222.133 146.000,222.400 145.642,222.400 145.200 C 222.400 144.756,222.133 144.400,221.800 144.400 C 221.470 144.400,221.200 144.220,221.200 144.000 C 221.200 143.780,220.840 143.600,220.400 143.600 C 219.960 143.600,219.600 143.830,219.600 144.111 M222.267 147.067 C 221.716 147.617,222.029 148.400,222.800 148.400 C 223.333 148.400,223.600 148.133,223.600 147.600 C 223.600 146.829,222.817 146.516,222.267 147.067 M223.200 150.000 C 223.200 150.444,223.467 150.800,223.800 150.800 C 224.133 150.800,224.400 150.444,224.400 150.000 C 224.400 149.556,224.133 149.200,223.800 149.200 C 223.467 149.200,223.200 149.556,223.200 150.000 M224.308 152.075 C 224.108 152.677,225.407 154.000,226.200 154.000 C 226.533 154.000,226.800 153.644,226.800 153.200 C 226.800 152.756,226.533 152.400,226.200 152.400 C 225.870 152.400,225.600 152.220,225.600 152.000 C 225.600 151.436,224.500 151.500,224.308 152.075 M226.600 155.200 C 226.265 155.742,226.717 156.400,227.424 156.400 C 227.741 156.400,228.000 156.040,228.000 155.600 C 228.000 154.772,227.035 154.496,226.600 155.200 M227.800 157.600 C 227.465 158.142,227.917 158.800,228.624 158.800 C 228.941 158.800,229.200 158.440,229.200 158.000 C 229.200 157.172,228.235 156.896,227.800 157.600 M229.067 159.467 C 228.516 160.017,228.829 160.800,229.600 160.800 C 230.133 160.800,230.400 160.533,230.400 160.000 C 230.400 159.229,229.617 158.916,229.067 159.467 M230.267 161.867 C 229.716 162.417,230.029 163.200,230.800 163.200 C 231.333 163.200,231.600 162.933,231.600 162.400 C 231.600 161.629,230.817 161.316,230.267 161.867 M231.200 167.200 C 231.200 167.644,231.467 168.000,231.800 168.000 C 232.133 168.000,232.400 167.644,232.400 167.200 C 232.400 166.756,232.133 166.400,231.800 166.400 C 231.467 166.400,231.200 166.756,231.200 167.200 M232.400 169.200 C 232.400 169.644,232.667 170.000,233.000 170.000 C 233.333 170.000,233.600 169.644,233.600 169.200 C 233.600 168.756,233.333 168.400,233.000 168.400 C 232.667 168.400,232.400 168.756,232.400 169.200 M233.443 177.033 C 233.091 177.950,233.119 178.000,234.000 178.000 C 234.533 178.000,234.800 177.733,234.800 177.200 C 234.800 176.251,233.791 176.126,233.443 177.033 M234.600 179.200 C 234.265 179.742,234.717 180.400,235.424 180.400 C 235.741 180.400,236.000 180.040,236.000 179.600 C 236.000 178.772,235.035 178.496,234.600 179.200 M235.776 181.638 C 235.467 182.139,239.103 186.000,239.885 186.000 C 240.168 186.000,240.400 185.716,240.400 185.369 C 240.400 184.659,238.293 182.400,237.631 182.400 C 237.394 182.400,237.200 182.130,237.200 181.800 C 237.200 181.106,236.177 180.990,235.776 181.638 M240.270 188.561 C 240.019 189.215,240.314 189.600,241.067 189.600 C 241.360 189.600,241.600 189.240,241.600 188.800 C 241.600 187.890,240.597 187.710,240.270 188.561 M241.452 191.809 C 241.108 192.704,242.616 194.000,244.000 194.000 C 244.933 194.000,245.200 193.822,245.200 193.200 C 245.200 192.578,244.933 192.400,244.000 192.400 C 243.200 192.400,242.800 192.200,242.800 191.800 C 242.800 191.016,241.754 191.023,241.452 191.809 M245.067 195.067 C 244.516 195.617,244.829 196.400,245.600 196.400 C 246.133 196.400,246.400 196.133,246.400 195.600 C 246.400 194.829,245.617 194.516,245.067 195.067 M246.000 198.938 C 246.000 199.643,247.294 200.800,248.083 200.800 C 248.423 200.800,248.926 201.070,249.200 201.400 C 249.474 201.730,250.269 202.000,250.968 202.000 C 251.887 202.000,252.509 202.327,253.219 203.183 C 254.321 204.512,256.348 204.827,257.200 203.800 C 257.474 203.470,258.216 203.200,258.849 203.200 C 259.733 203.200,260.000 203.015,260.000 202.400 C 260.000 201.697,259.733 201.600,257.800 201.600 C 256.111 201.600,255.600 201.739,255.600 202.200 C 255.600 202.530,255.330 202.800,255.000 202.800 C 254.670 202.800,254.400 202.530,254.400 202.200 C 254.400 201.870,254.130 201.600,253.800 201.600 C 253.470 201.600,253.200 201.330,253.200 201.000 C 253.200 200.556,252.733 200.400,251.400 200.400 C 250.067 200.400,249.600 200.244,249.600 199.800 C 249.600 199.427,249.222 199.200,248.600 199.200 C 248.050 199.200,247.600 199.020,247.600 198.800 C 247.600 198.580,247.240 198.400,246.800 198.400 C 246.360 198.400,246.000 198.642,246.000 198.938 M259.782 204.430 C 259.467 204.939,261.107 206.800,261.870 206.800 C 262.161 206.800,262.400 206.440,262.400 206.000 C 262.400 205.556,262.133 205.200,261.800 205.200 C 261.470 205.200,261.200 204.930,261.200 204.600 C 261.200 203.911,260.178 203.788,259.782 204.430 M262.267 209.867 C 261.716 210.417,262.029 211.200,262.800 211.200 C 263.333 211.200,263.600 210.933,263.600 210.400 C 263.600 209.629,262.817 209.316,262.267 209.867 M263.200 213.813 C 263.200 214.151,263.746 214.961,264.414 215.613 C 265.892 217.059,268.000 217.286,268.000 216.000 C 268.000 215.378,267.733 215.200,266.800 215.200 C 266.140 215.200,265.600 215.020,265.600 214.800 C 265.600 214.580,265.330 214.400,265.000 214.400 C 264.670 214.400,264.400 214.130,264.400 213.800 C 264.400 213.470,264.130 213.200,263.800 213.200 C 263.470 213.200,263.200 213.476,263.200 213.813 M267.782 220.430 C 267.467 220.939,269.107 222.800,269.870 222.800 C 270.161 222.800,270.400 222.440,270.400 222.000 C 270.400 221.556,270.133 221.200,269.800 221.200 C 269.470 221.200,269.200 220.930,269.200 220.600 C 269.200 219.911,268.178 219.788,267.782 220.430 M242.100 221.865 C 241.297 222.189,241.525 223.200,242.400 223.200 C 242.933 223.200,243.200 222.933,243.200 222.400 C 243.200 221.592,243.008 221.498,242.100 221.865 M244.267 223.067 C 243.603 223.730,244.072 224.400,245.200 224.400 C 245.959 224.400,246.400 224.195,246.400 223.843 C 246.400 223.051,244.848 222.486,244.267 223.067 M247.875 223.058 C 247.309 223.625,247.629 224.400,248.429 224.400 C 248.989 224.400,249.217 224.183,249.129 223.733 C 248.987 222.997,248.304 222.630,247.875 223.058 M270.153 223.779 C 269.880 224.489,271.111 225.860,272.200 226.061 C 272.664 226.146,273.054 226.584,273.128 227.104 C 273.336 228.562,274.800 228.295,274.800 226.800 C 274.800 226.000,274.600 225.600,274.200 225.600 C 273.870 225.600,273.600 225.330,273.600 225.000 C 273.600 224.634,273.227 224.400,272.643 224.400 C 272.116 224.400,271.582 224.130,271.455 223.800 C 271.162 223.037,270.442 223.025,270.153 223.779 M255.880 224.253 C 255.252 224.881,255.651 225.600,256.629 225.600 C 257.392 225.600,257.624 225.420,257.525 224.905 C 257.385 224.176,256.362 223.771,255.880 224.253 M259.300 224.265 C 258.497 224.589,258.725 225.600,259.600 225.600 C 260.133 225.600,260.400 225.333,260.400 224.800 C 260.400 223.992,260.208 223.898,259.300 224.265 M261.467 225.467 C 260.916 226.017,261.229 226.800,262.000 226.800 C 262.533 226.800,262.800 226.533,262.800 226.000 C 262.800 225.229,262.017 224.916,261.467 225.467 M234.598 226.004 C 234.214 226.625,234.785 228.000,235.427 228.000 C 235.797 228.000,236.000 227.575,236.000 226.800 C 236.000 225.611,235.142 225.123,234.598 226.004 M264.800 227.171 C 264.800 227.743,265.057 228.000,265.629 228.000 C 266.654 228.000,266.538 226.676,265.495 226.475 C 265.015 226.383,264.800 226.598,264.800 227.171 M137.300 260.694 C 136.707 260.899,136.623 262.000,137.200 262.000 C 137.420 262.000,137.600 262.270,137.600 262.600 C 137.600 262.930,137.870 263.200,138.200 263.200 C 138.530 263.200,138.800 263.470,138.800 263.800 C 138.800 264.133,139.156 264.400,139.600 264.400 C 140.040 264.400,140.400 264.143,140.400 263.828 C 140.400 263.016,137.899 260.488,137.300 260.694 M142.675 264.258 C 141.895 265.039,142.387 273.600,143.213 273.600 C 143.990 273.600,144.020 273.395,143.913 268.933 C 143.808 264.607,143.498 263.435,142.675 264.258 M144.800 273.971 C 144.800 274.543,145.057 274.800,145.629 274.800 C 146.654 274.800,146.538 273.476,145.495 273.275 C 145.015 273.183,144.800 273.398,144.800 273.971 M149.467 274.667 C 148.702 275.431,149.192 284.000,150.000 284.000 C 150.756 284.000,150.800 283.733,150.800 279.200 C 150.800 274.527,150.529 273.605,149.467 274.667 M153.300 283.494 C 152.707 283.699,152.623 284.800,153.200 284.800 C 153.420 284.800,153.600 285.070,153.600 285.400 C 153.600 285.730,153.870 286.000,154.200 286.000 C 154.644 286.000,154.800 286.467,154.800 287.800 C 154.800 289.133,154.956 289.600,155.400 289.600 C 155.800 289.600,156.000 290.000,156.000 290.800 C 156.000 291.600,155.800 292.000,155.400 292.000 C 154.967 292.000,154.800 292.444,154.800 293.600 C 154.800 294.756,154.633 295.200,154.200 295.200 C 153.800 295.200,153.600 295.600,153.600 296.400 C 153.600 297.505,153.711 297.600,155.000 297.600 C 156.387 297.600,156.400 297.583,156.400 295.849 C 156.400 294.780,156.634 293.904,157.000 293.600 C 157.380 293.285,157.600 292.402,157.600 291.194 C 157.600 289.867,157.417 289.215,157.000 289.055 C 156.627 288.912,156.400 288.302,156.400 287.441 C 156.400 285.927,154.236 283.172,153.300 283.494 M175.867 292.667 C 175.379 293.154,175.591 294.000,176.200 294.000 C 176.530 294.000,176.800 294.270,176.800 294.600 C 176.800 294.933,177.156 295.200,177.600 295.200 C 178.669 295.200,178.600 294.403,177.437 293.300 C 176.405 292.322,176.267 292.266,175.867 292.667 M163.300 293.865 C 162.420 294.220,162.678 296.400,163.600 296.400 C 164.248 296.400,164.400 296.133,164.400 295.000 C 164.400 293.612,164.267 293.475,163.300 293.865 M182.675 295.058 C 182.109 295.625,182.429 296.400,183.229 296.400 C 183.789 296.400,184.017 296.183,183.929 295.733 C 183.787 294.997,183.104 294.630,182.675 295.058 " stroke="none" fill="#646464" fill-rule="evenodd"></path><path id="path2" d="" stroke="none" fill="#d4100b0" fill-rule="evenodd"></path><path id="path3" d="" stroke="none" fill="#d4100b0" fill-rule="evenodd"></path><path id="path4" d="" stroke="none" fill="#d4100b0" fill-rule="evenodd"></path></g></svg>